<svg id="Capa_1" enable-background="new 0 0 512 512" height="512" viewBox="0 0 512 512" width="512" xmlns="http://www.w3.org/2000/svg"><g><g><path d="m369.494 187.948h75.148v322.316h-75.148z" fill="#e2c4ff"/><g><path d="m84.861 256.417h64.865v253.847h-64.865z" fill="#e2c4ff"/></g></g><g fill="#020288"><path d="m328.005 100.319h-46.065c-5.526 0-10.005 4.479-10.005 10.005v46.143c0 5.526 4.479 10.005 10.005 10.005h46.065c5.526 0 10.005-4.479 10.005-10.005v-46.143c0-5.526-4.479-10.005-10.005-10.005zm-10.005 46.142h-26.055v-26.132h26.055z"/><path d="m237.28 100.319h-46.065c-5.526 0-10.005 4.479-10.005 10.005v46.143c0 5.526 4.479 10.005 10.005 10.005h46.065c5.526 0 10.005-4.479 10.005-10.005v-46.143c.001-5.526-4.479-10.005-10.005-10.005zm-10.005 46.142h-26.055v-26.132h26.055z"/><path d="m328.005 201.895h-46.065c-5.526 0-10.005 4.479-10.005 10.005v46.143c0 5.526 4.479 10.005 10.005 10.005h46.065c5.526 0 10.005-4.479 10.005-10.005v-46.143c0-5.526-4.479-10.005-10.005-10.005zm-10.005 46.142h-26.055v-26.132h26.055z"/><path d="m237.28 201.895h-46.065c-5.526 0-10.005 4.479-10.005 10.005v46.143c0 5.526 4.479 10.005 10.005 10.005h46.065c5.526 0 10.005-4.479 10.005-10.005v-46.143c.001-5.526-4.479-10.005-10.005-10.005zm-10.005 46.142h-26.055v-26.132h26.055z"/><path d="m328.005 303.471h-46.065c-5.526 0-10.005 4.479-10.005 10.005v46.142c0 5.526 4.479 10.005 10.005 10.005h46.065c5.526 0 10.005-4.479 10.005-10.005v-46.142c0-5.525-4.479-10.005-10.005-10.005zm-10.005 46.142h-26.055v-26.132h26.055z"/><path d="m237.28 303.471h-46.065c-5.526 0-10.005 4.479-10.005 10.005v46.142c0 5.526 4.479 10.005 10.005 10.005h46.065c5.526 0 10.005-4.479 10.005-10.005v-46.142c.001-5.525-4.479-10.005-10.005-10.005zm-10.005 46.142h-26.055v-26.132h26.055z"/><path d="m463.94 491.99h-84.441v-436.029c0-5.526-4.479-10.005-10.005-10.005h-21.299v-35.95c0-5.527-4.479-10.006-10.005-10.006h-157.16c-5.526 0-10.005 4.479-10.005 10.005v35.95h-21.299c-5.526 0-10.005 4.48-10.005 10.005v436.03h-91.661c-5.526 0-10.005 4.479-10.005 10.005s4.479 10.005 10.005 10.005h415.88c5.526 0 10.005-4.479 10.005-10.005s-4.479-10.005-10.005-10.005zm-272.905-471.98h137.15v25.945h-137.15zm38.472 471.98v-55.967h60.205v55.967zm80.216 0v-65.972c0-5.526-4.479-10.005-10.005-10.005h-80.216c-5.526 0-10.005 4.479-10.005 10.005v65.972h-49.766v-426.024h199.758v426.024z"/></g></g></svg>