<svg id="Capa_1" enable-background="new 0 0 512 512" height="512" viewBox="0 0 512 512" width="512" xmlns="http://www.w3.org/2000/svg"><g><g><circle cx="358.554" cy="168.513" fill="#fff59b" r="94.804"/></g><g fill="#020288"><path d="m358.554 317.317c82.051 0 148.804-66.753 148.804-148.803 0-82.051-66.753-148.804-148.804-148.804s-148.804 66.753-148.804 148.804c0 82.05 66.753 148.803 148.804 148.803zm0-277.607c71.022 0 128.804 57.781 128.804 128.804 0 71.022-57.781 128.803-128.804 128.803-71.022 0-128.804-57.781-128.804-128.803 0-71.023 57.781-128.804 128.804-128.804z"/><path d="m341.76 193.485c-3.465-4.301-9.759-4.978-14.061-1.514-4.301 3.465-4.978 9.76-1.514 14.061 5.513 6.843 13.416 10.731 21.288 12.594.419 5.137 4.721 9.175 9.966 9.175 4.997 0 9.138-3.665 9.881-8.454 14.084-2.514 23.967-11.891 25.588-24.657 1.884-14.829-7.735-29.05-23.391-34.584-.713-.252-1.405-.498-2.078-.739v-19.266c.833.531 1.454 1.111 1.848 1.671 3.17 4.521 9.407 5.616 13.93 2.442 4.521-3.172 5.614-9.409 2.441-13.93-3.637-5.185-9.989-9.584-18.225-11.396-.178-5.367-4.584-9.663-9.994-9.663-5.523 0-10 4.477-10 10v.335c-.614.161-1.232.334-1.854.522-10.498 3.163-18.42 13.33-19.265 24.726-.84 11.325 5.154 21.148 16.033 26.278 1.186.56 2.919 1.292 5.085 2.155v24.378c-2.293-1.032-4.285-2.405-5.678-4.134zm31.307-1.315c-.372 2.929-2.355 5.166-5.628 6.492v-17.371c4.393 3.086 6.063 7.459 5.628 10.879zm-26.8-45.883c.095-1.29.523-2.568 1.173-3.684v7.82c-.905-1.173-1.292-2.545-1.173-4.136z"/><path d="m511.959 359.847c-.526-12.139-6.155-22.577-15.85-29.39-15.977-11.229-37.541-9.279-51.278 4.635-.44.446-.838.932-1.187 1.453l-21.938 32.685c-6.142-14.497-20.412-24.681-36.991-24.681l-157.832-.106h-.007c-2.394 0-4.707.858-6.521 2.419l-39.54 34.017h-28.855v-8.789c0-5.523-4.478-10-10-10h-44.03v-1.368c0-5.523-4.478-10-10-10h-77.93c-5.523 0-10 4.477-10 10v117.278c0 5.523 4.477 10 10 10h77.93c5.522 0 10-4.477 10-10v-1.368h44.029c5.522 0 10-4.477 10-10v-9.234h33.157l29.954 31.753c1.891 2.004 4.523 3.138 7.274 3.138.047 0 .094 0 .141-.001l206.514-2.897c3.222-.045 6.225-1.64 8.066-4.284l65.616-94.224c.041-.059.082-.119.121-.178 6.353-9.555 9.605-20.514 9.157-30.858zm-434.029 108.153h-57.93v-97.278h57.93zm54.029-11.367h-34.029v-74.543h34.029zm354.246-77.088-62.619 89.921-196.984 2.763-29.896-31.692c-1.89-2.003-4.521-3.138-7.274-3.138h-37.472v-36.52h32.565c2.394 0 4.707-.858 6.521-2.419l39.537-34.014 154.125.104c11.147 0 20.216 9.236 20.216 20.589 0 11.352-9.068 20.587-20.216 20.587-.026 0-.052.001-.078.001h-86.24c-2.744 0-5.368 1.128-7.257 3.12l-21.038 22.19c-3.8 4.008-3.631 10.337.377 14.137 1.934 1.833 4.408 2.743 6.878 2.743 2.649 0 5.293-1.046 7.259-3.12l18.08-19.07 99.847.004h.003c3.332 0 6.446-1.66 8.303-4.427l48.832-72.751c6.863-6.396 17.215-7.16 24.935-1.732 10.421 7.323 8.693 21.986 1.596 32.724z"/></g></g></svg>