<svg height="454pt" viewBox="0 -54 454 454" width="454pt" xmlns="http://www.w3.org/2000/svg"><path d="m436 301.867188h-360c-18.214844-.019532-32.980469-14.78125-33-33v-251.5c0-.964844.050781-1.921876.132812-2.867188-17.039062 1.503906-30.109374 15.761719-30.132812 32.867188v251.5c.019531 18.21875 14.785156 32.980468 33 33h360c17.105469-.023438 31.363281-13.09375 32.867188-30.132813-.945313.082031-1.898438.132813-2.867188.132813zm0 0" fill="#d4e1f4"/><path d="m447 225h-277.800781c10.757812-6.421875 17.363281-18.011719 17.402343-30.539062 0-19.714844-16.253906-35.753907-36.230468-35.753907-12.214844-.011719-23.617188 6.097657-30.371094 16.273438v-167.980469c0-3.867188-3.132812-7-7-7s-7 3.132812-7 7v167.984375c-3.089844-4.691406-7.234375-8.59375-12.101562-11.398437-5.554688-3.199219-11.855469-4.882813-18.265626-4.878907-19.980468 0-36.230468 16.039063-36.230468 35.753907.039062 12.527343 6.644531 24.121093 17.402344 30.539062h-49.804688c-3.867188 0-7 3.132812-7 7s3.132812 7 7 7h89.101562l-33.050781 33.050781c-2.734375 2.734375-2.734375 7.164063 0 9.898438s7.164063 2.734375 9.898438 0l33.050781-33.050781v90.101562c0 3.867188 3.132812 7 7 7s7-3.132812 7-7v-90.101562l44.550781 44.550781c2.734375 2.734375 7.164063 2.734375 9.898438 0s2.734375-7.164063 0-9.898438l-44.550781-44.550781h317.101562c3.867188 0 7-3.132812 7-7s-3.132812-7-7-7zm-375.554688-9.175781c-11.21875-1.921875-19.050781-12.175781-17.949218-23.503907 1.097656-11.328124 10.757812-19.882812 22.132812-19.613281 3.957032-.003906 7.84375 1.03125 11.277344 3 5.484375 3.136719 9.339844 8.496094 10.5625 14.695313l6.101562 31.445312zm83.109376 0-32.121094 6.027343 6.097656-31.445312c2.328125-11.070312 12.578125-18.640625 23.84375-17.601562 11.261719 1.035156 19.960938 10.347656 20.226562 21.65625-.097656 10.535156-7.675781 19.507812-18.046874 21.363281zm0 0" fill="#1ae5be"/><path d="m407 .5h-360c-25.945312.027344-46.9726562 21.054688-47 47v251.5c.0273438 25.945312 21.054688 46.972656 47 47h360c25.945312-.027344 46.972656-21.054688 47-47v-251.5c-.027344-25.945312-21.054688-46.972656-47-47zm33 298.5c-.019531 18.214844-14.785156 32.980469-33 33h-360c-18.214844-.019531-32.980469-14.785156-33-33v-251.5c.019531-18.214844 14.785156-32.980469 33-33h360c18.214844.019531 32.980469 14.785156 33 33zm0 0" fill="#0635c9"/></svg>