<?xml version="1.0" encoding="utf-8"?>
<!-- Generator: Adobe Illustrator 24.2.0, SVG Export Plug-In . SVG Version: 6.00 Build 0)  -->
<svg version="1.1" id="Capa_1" xmlns="http://www.w3.org/2000/svg" xmlns:xlink="http://www.w3.org/1999/xlink" x="0px" y="0px"
	 viewBox="0 0 512 512" style="enable-background:new 0 0 512 512;" xml:space="preserve">
<style type="text/css">
	.st0{fill:#E2C4FF;}
	.st1{fill:#020288;}
</style>
<g>
	<g>
		<circle class="st0" cx="358.6" cy="168.5" r="94.8"/>
	</g>
	<g>
		<path class="st1" d="M358.6,317.3c82.1,0,148.8-66.8,148.8-148.8c0-82.1-66.8-148.8-148.8-148.8S209.7,86.5,209.7,168.5
			C209.7,250.6,276.5,317.3,358.6,317.3L358.6,317.3z M358.6,39.7c71,0,128.8,57.8,128.8,128.8c0,71-57.8,128.8-128.8,128.8
			c-71,0-128.8-57.8-128.8-128.8C229.7,97.5,287.5,39.7,358.6,39.7L358.6,39.7z"/>
		<path class="st1" d="M341.8,193.5c-3.5-4.3-9.8-5-14.1-1.5c-4.3,3.5-5,9.8-1.5,14.1c5.5,6.8,13.4,10.7,21.3,12.6
			c0.4,5.1,4.7,9.2,10,9.2c5,0,9.1-3.7,9.9-8.5c14.1-2.5,24-11.9,25.6-24.7c1.9-14.8-7.7-29.1-23.4-34.6c-0.7-0.3-1.4-0.5-2.1-0.7
			v-19.3c0.8,0.5,1.5,1.1,1.8,1.7c3.2,4.5,9.4,5.6,13.9,2.4c4.5-3.2,5.6-9.4,2.4-13.9c-3.6-5.2-10-9.6-18.2-11.4
			c-0.2-5.4-4.6-9.7-10-9.7c-5.5,0-10,4.5-10,10v0.3c-0.6,0.2-1.2,0.3-1.9,0.5c-10.5,3.2-18.4,13.3-19.3,24.7
			c-0.8,11.3,5.2,21.1,16,26.3c1.2,0.6,2.9,1.3,5.1,2.2v24.4C345.1,196.6,343.2,195.2,341.8,193.5L341.8,193.5z M373.1,192.2
			c-0.4,2.9-2.4,5.2-5.6,6.5v-17.4C371.8,184.4,373.5,188.8,373.1,192.2z M346.3,146.3c0.1-1.3,0.5-2.6,1.2-3.7v7.8
			C346.5,149.2,346.1,147.9,346.3,146.3z"/>
		<path class="st1" d="M512,359.8c-0.5-12.1-6.2-22.6-15.9-29.4c-16-11.2-37.5-9.3-51.3,4.6c-0.4,0.4-0.8,0.9-1.2,1.5l-21.9,32.7
			c-6.1-14.5-20.4-24.7-37-24.7l-157.8-0.1h0c-2.4,0-4.7,0.9-6.5,2.4l-39.5,34H152v-8.8c0-5.5-4.5-10-10-10h-44v-1.4
			c0-5.5-4.5-10-10-10H10c-5.5,0-10,4.5-10,10V478c0,5.5,4.5,10,10,10h77.9c5.5,0,10-4.5,10-10v-1.4h44c5.5,0,10-4.5,10-10v-9.2
			h33.2l30,31.8c1.9,2,4.5,3.1,7.3,3.1c0,0,0.1,0,0.1,0l206.5-2.9c3.2,0,6.2-1.6,8.1-4.3l65.6-94.2c0-0.1,0.1-0.1,0.1-0.2
			C509.2,381.1,512.4,370.2,512,359.8L512,359.8z M77.9,468H20v-97.3h57.9V468z M132,456.6h-34v-74.5h34V456.6z M486.2,379.5
			l-62.6,89.9l-197,2.8l-29.9-31.7c-1.9-2-4.5-3.1-7.3-3.1H152v-36.5h32.6c2.4,0,4.7-0.9,6.5-2.4l39.5-34l154.1,0.1
			c11.1,0,20.2,9.2,20.2,20.6c0,11.4-9.1,20.6-20.2,20.6c0,0-0.1,0-0.1,0h-86.2c-2.7,0-5.4,1.1-7.3,3.1l-21,22.2
			c-3.8,4-3.6,10.3,0.4,14.1c1.9,1.8,4.4,2.7,6.9,2.7c2.6,0,5.3-1,7.3-3.1l18.1-19.1l99.8,0h0c3.3,0,6.4-1.7,8.3-4.4l48.8-72.8
			c6.9-6.4,17.2-7.2,24.9-1.7C495,354.1,493.3,368.8,486.2,379.5L486.2,379.5z"/>
	</g>
</g>
</svg>
