<?xml version="1.0" encoding="utf-8"?>
<!-- Generator: Adobe Illustrator 24.2.0, SVG Export Plug-In . SVG Version: 6.00 Build 0)  -->
<svg version="1.1" baseProfile="tiny" id="Capa_1" xmlns="http://www.w3.org/2000/svg" xmlns:xlink="http://www.w3.org/1999/xlink"
	 x="0px" y="0px" viewBox="0 0 512 512" overflow="visible" xml:space="preserve">
<g>
	<g>
		<path fill="#E2C4FF" d="M10,210h444.3v58.4H10V210z"/>
	</g>
	<g>
		<path fill="#020288" d="M477.5,65H82.3c-19,0-34.5,15.5-34.5,34.5V139H34.5C15.5,139,0,154.5,0,173.5v238.9
			c0,19,15.5,34.5,34.5,34.5h395.2c19,0,34.5-15.5,34.5-34.5V373h13.2c19,0,34.5-15.5,34.5-34.5V99.5C512,80.5,496.5,65,477.5,65
			L477.5,65z M444.3,412.5c0,8-6.5,14.5-14.5,14.5H34.5c-8,0-14.5-6.5-14.5-14.5V173.5c0-8,6.5-14.5,14.5-14.5h395.2
			c8,0,14.5,6.5,14.5,14.5V412.5z M492,338.5c0,8-6.5,14.5-14.5,14.5h-13.2V173.5c0-19-15.5-34.5-34.5-34.5h-362V99.5
			c0-8,6.5-14.5,14.5-14.5h395.2c8,0,14.5,6.5,14.5,14.5V338.5z"/>
		<path fill="#020288" d="M208.3,334.3h-49.4c-5.5,0-10,4.5-10,10v41.4c0,5.5,4.5,10,10,10h49.4c5.5,0,10-4.5,10-10v-41.4
			C218.3,338.7,213.8,334.3,208.3,334.3z M198.3,375.7h-29.4v-21.4h29.4V375.7z"/>
		<path fill="#020288" d="M305.4,334.3H256c-5.5,0-10,4.5-10,10v41.4c0,5.5,4.5,10,10,10h49.4c5.5,0,10-4.5,10-10v-41.4
			C315.4,338.7,310.9,334.3,305.4,334.3z M295.4,375.7H266v-21.4h29.4V375.7z"/>
		<path fill="#020288" d="M402.5,334.3h-49.4c-5.5,0-10,4.5-10,10v41.4c0,5.5,4.5,10,10,10h49.4c5.5,0,10-4.5,10-10v-41.4
			C412.5,338.7,408,334.3,402.5,334.3z M392.5,375.7h-29.4v-21.4h29.4V375.7z"/>
		<path fill="#020288" d="M111.2,334.3H61.8c-5.5,0-10,4.5-10,10v41.4c0,5.5,4.5,10,10,10h49.4c5.5,0,10-4.5,10-10v-41.4
			C121.2,338.7,116.7,334.3,111.2,334.3z M101.2,375.7H71.8v-21.4h29.4L101.2,375.7L101.2,375.7z"/>
	</g>
</g>
</svg>
