<?xml version="1.0" encoding="utf-8"?>
<!-- Generator: Adobe Illustrator 24.2.0, SVG Export Plug-In . SVG Version: 6.00 Build 0)  -->
<svg version="1.1" id="Layer_1" xmlns="http://www.w3.org/2000/svg" xmlns:xlink="http://www.w3.org/1999/xlink" x="0px" y="0px"
	 viewBox="0 0 454 454" style="enable-background:new 0 0 454 454;" xml:space="preserve">
<style type="text/css">
	.st0{fill:#D4E1F4;}
	.st1{fill:#E2C4FF;}
	.st2{fill:#020288;}
</style>
<path class="st0" d="M436,355.9H76c-18.2,0-33-14.8-33-33V71.4c0-1,0.1-1.9,0.1-2.9C26.1,70,13,84.3,13,101.4v251.5
	c0,18.2,14.8,33,33,33h360c17.1,0,31.4-13.1,32.9-30.1C437.9,355.8,437,355.9,436,355.9z"/>
<path class="st1" d="M447,279H169.2c10.8-6.4,17.4-18,17.4-30.5c0-19.7-16.3-35.8-36.2-35.8c-12.2,0-23.6,6.1-30.4,16.3V61
	c0-3.9-3.1-7-7-7s-7,3.1-7,7v168c-3.1-4.7-7.2-8.6-12.1-11.4c-5.6-3.2-11.9-4.9-18.3-4.9c-20,0-36.2,16-36.2,35.8
	c0,12.5,6.6,24.1,17.4,30.5H7c-3.9,0-7,3.1-7,7s3.1,7,7,7h89.1l-33.1,33.1c-2.7,2.7-2.7,7.2,0,9.9s7.2,2.7,9.9,0l33.1-33.1V393
	c0,3.9,3.1,7,7,7s7-3.1,7-7v-90.1l44.6,44.6c2.7,2.7,7.2,2.7,9.9,0s2.7-7.2,0-9.9L129.9,293H447c3.9,0,7-3.1,7-7S450.9,279,447,279z
	 M71.4,269.8c-11.2-1.9-19.1-12.2-17.9-23.5c1.1-11.3,10.8-19.9,22.1-19.6c4,0,7.8,1,11.3,3c5.5,3.1,9.3,8.5,10.6,14.7l6.1,31.4
	L71.4,269.8z M154.6,269.8l-32.1,6l6.1-31.4c2.3-11.1,12.6-18.6,23.8-17.6c11.3,1,20,10.3,20.2,21.7
	C172.5,259,164.9,268,154.6,269.8z"/>
<path class="st2" d="M407,54.5H47c-25.9,0-47,21.1-47,47V353c0,25.9,21.1,47,47,47h360c25.9,0,47-21.1,47-47V101.5
	C454,75.6,432.9,54.5,407,54.5z M440,353c0,18.2-14.8,33-33,33H47c-18.2,0-33-14.8-33-33V101.5c0-18.2,14.8-33,33-33h360
	c18.2,0,33,14.8,33,33V353z"/>
</svg>
