<?xml version="1.0" encoding="utf-8"?>
<!-- Generator: Adobe Illustrator 24.2.0, SVG Export Plug-In . SVG Version: 6.00 Build 0)  -->
<svg version="1.1" baseProfile="tiny" id="Capa_1" xmlns="http://www.w3.org/2000/svg" xmlns:xlink="http://www.w3.org/1999/xlink"
	 x="0px" y="0px" viewBox="0 0 512 512" overflow="visible" xml:space="preserve">
<g>
	<path fill="#020288" d="M502,332.9h-1.5v-66.1c0-1.4-0.3-2.9-0.8-4l-40.4-97.1c-1.6-3.7-5.2-6.2-9.2-6.2h-67v-56.9
		c0-17.8-14.4-32.2-32.2-32.2H311l0.5,20h39.4c6.7,0,12.2,5.5,12.2,12.2v230.3H31.5V102.7c0-6.7,5.5-12.2,12.2-12.2H77l0.5-20H43.7
		c-17.7,0-32.2,14.5-32.2,32.2v230.3H10c-5.5,0-10,4.5-10,10v68.6c0,5.5,4.5,10,10,10h53.1c-1,4.2-1.5,8.6-1.5,13.2
		c0,31.4,25.4,57,56.6,57c31.2,0,56.6-25.6,56.6-57c0-4.5-0.5-8.9-1.5-13.2H351c-1,4.2-1.5,8.6-1.5,13.2c0,31.4,25.4,57,56.6,57
		c31.2,0,56.6-25.6,56.6-57c0-4.5-0.5-8.9-1.5-13.2H502c5.5,0,10-4.5,10-10v-68.6C512,337.4,507.5,332.9,502,332.9z M383.1,179.6
		h60.3l32.1,77.2h-92.4V179.6z M383.1,276.8h97.4v56.1h-97.4V276.8z M118.1,471.7c-20.2,0-36.6-16.6-36.6-37s16.4-37,36.6-37
		s36.6,16.6,36.6,37C154.7,455.1,138.3,471.7,118.1,471.7z M406.1,471.7c-20.2,0-36.6-16.6-36.6-37s16.4-37,36.6-37
		s36.6,16.6,36.6,37S426.2,471.7,406.1,471.7L406.1,471.7z M492,401.6h-39.2c-0.2,0-0.5,0-0.7,0c-10.3-14.4-27.1-23.8-46-23.8
		c-18.9,0-35.7,9.4-46,23.8H164.8c-0.2,0-0.5,0-0.7,0c-10.3-14.4-27.1-23.8-46-23.8c-18.9,0-35.7,9.4-46,23.8H20v-48.6h472
		L492,401.6z"/>
</g>
<g>
	<path fill="#E2C4FF" d="M320.6,52.1c0.8-9.3,0.2-17.2-5.6-23.3c-21.1-22.1-70.9,3.4-95.6,22.9c-3.8-2.7-8.2-5.1-12.9-6.1
		c-3.8-1.2-7.9-1.8-12.1-1.8c-4.1,0-8,0.6-11.8,1.7c-4.9,0.9-9.4,3.2-13.3,5.9C144.6,32,94.8,7.2,73.7,29.3
		c-5.8,6.1-6.4,13.5-5.6,22.8L66.3,117c1.6,48.4,57.2,32.8,92.5,12.7v62.5l35.5-19.9l35.5,19.9v-62.5c35.4,20.1,91,35.7,92.5-12.7
		L320.6,52.1z"/>
</g>
</svg>
