<?xml version="1.0" encoding="utf-8"?>
<!-- Generator: Adobe Illustrator 24.2.0, SVG Export Plug-In . SVG Version: 6.00 Build 0)  -->
<svg version="1.1" baseProfile="tiny" id="Capa_1" xmlns="http://www.w3.org/2000/svg" xmlns:xlink="http://www.w3.org/1999/xlink"
	 x="0px" y="0px" viewBox="0 0 512 512" overflow="visible" xml:space="preserve">
<g>
	<g>
		<g>
			<path fill="#E2C4FF" d="M335.8,315.7h-3.5v-66c0-42.1-34.1-76.3-76.3-76.3s-76.3,34.1-76.3,76.3v66h-3.5
				c-12.7,0-22.9,10.3-22.9,22.9c0,12.7,10.3,22.9,22.9,22.9h159.6c12.7,0,22.9-10.3,22.9-22.9C358.7,326,348.5,315.7,335.8,315.7
				L335.8,315.7z"/>
		</g>
		<g>
			<path fill="#E2C4FF" d="M234.4,175l-10.2-44.6h63.7L277.6,175"/>
		</g>
	</g>
	<g>
		<path fill="#020288" d="M267.1,263.7c-0.8-0.3-1.5-0.5-2.3-0.8v-20.1c1.1,0.6,1.9,1.3,2.3,2c3.2,4.5,9.4,5.6,13.9,2.4
			c4.5-3.2,5.6-9.4,2.4-13.9c-3.7-5.3-10.2-9.7-18.7-11.6c-0.1-5.4-4.5-9.8-10-9.8c-5.5,0-10,4.5-10,10v0.5
			c-0.7,0.2-1.4,0.4-2.1,0.6c-10.7,3.2-18.7,13.5-19.6,25c-0.8,11.5,5.2,21.4,16.3,26.6c1.2,0.6,3.1,1.3,5.3,2.2v25.3
			c-2.5-1.1-4.7-2.6-6.3-4.4c-3.5-4.3-9.8-5-14.1-1.5c-4.3,3.5-5,9.8-1.5,14.1c5.6,7,13.8,10.9,21.8,12.8c0.4,5.2,4.7,9.3,10,9.3
			c5,0,9.2-3.7,9.9-8.6c14.4-2.5,24.5-12,26.2-25C292.8,283.7,283.1,269.3,267.1,263.7L267.1,263.7z M243.2,249.5
			c0.1-1.6,0.7-3.2,1.7-4.5v9.4C243.6,253,243,251.4,243.2,249.5z M271.1,296.2c-0.4,3.2-2.6,5.6-6.2,6.9v-18.4
			C269.7,287.9,271.6,292.6,271.1,296.2z"/>
		<path fill="#020288" d="M408.3,49.1c0-27.1-22-49.1-49.1-49.1H152.7c-27.1,0-49.1,22-49.1,49.1v413.8c0,27.1,22,49.1,49.1,49.1
			h206.5c27.1,0,49.1-22,49.1-49.1V49.1z M123.7,421.7V90.3l264.7,0v331.4L123.7,421.7L123.7,421.7z M123.7,49.1
			c0-16,13-29.1,29.1-29.1h206.5c16,0,29.1,13,29.1,29.1v21.2H123.7V49.1z M359.3,492H152.7c-16,0-29.1-13-29.1-29.1v-21.2l264.7,0
			v21.1C388.3,479,375.3,492,359.3,492L359.3,492z"/>
		<path fill="#020288" d="M276.3,35.1h-40.7c-5.5,0-10,4.5-10,10s4.5,10,10,10h40.7c5.5,0,10-4.5,10-10
			C286.3,39.6,281.9,35.1,276.3,35.1z"/>
		<path fill="#020288" d="M266.2,455.4h-20.3c-5.5,0-10,4.5-10,10s4.5,10,10,10h20.3c5.5,0,10-4.5,10-10S271.7,455.4,266.2,455.4z"
			/>
	</g>
</g>
</svg>
