<?xml version="1.0" encoding="utf-8"?>
<!-- Generator: Adobe Illustrator 24.2.0, SVG Export Plug-In . SVG Version: 6.00 Build 0)  -->
<svg version="1.1" baseProfile="tiny" id="Capa_1" xmlns="http://www.w3.org/2000/svg" xmlns:xlink="http://www.w3.org/1999/xlink"
	 x="0px" y="0px" viewBox="0 0 512 512" overflow="visible" xml:space="preserve">
<g>
	<g>
		<path fill="#E2C4FF" d="M356,195.5l29.8-29.8c-9.7-9.7-9.7-25.5,0-35.3l-48-48c-9.7,9.7-25.5,9.7-35.3,0L189.4,195.5L356,195.5
			L356,195.5z"/>
	</g>
	<g>
		<g>
			<path fill="#020288" d="M451.6,396.9v79.5c0,8.6-7,15.5-15.6,15.5H102.3V205.5H436c8.6,0,15.6,7,15.6,15.5v79.5h20v-79.5
				c0-17.3-12.4-31.7-28.7-34.9l16.6-16.6c5.7-5.7,8.9-13.4,8.9-21.5c0-8.1-3.2-15.8-8.9-21.5L341.7,8.9c-11.9-11.8-31.1-11.8-43,0
				L121.9,185.5H56c-19.6,0-35.6,15.9-35.6,35.5v255.4c0,19.6,16,35.5,35.6,35.5H436c19.6,0,35.6-15.9,35.6-35.5v-79.5L451.6,396.9
				L451.6,396.9z M312.8,23c4.1-4.1,10.7-4.1,14.7,0l117.8,117.7c2,2,3,4.6,3,7.3c0,2.8-1.1,5.4-3,7.3l-30.1,30.1h-265L312.8,23z
				 M82.3,492H56c-8.6,0-15.6-7-15.6-15.5V221.1c0-8.6,7-15.5,15.6-15.5h26.3V492z"/>
		</g>
	</g>
	<path fill="#E2C4FF" d="M491.6,406.9H375.8c-32.1,0-58.2-26-58.2-58.2s26-58.2,58.2-58.2h115.8V406.9z"/>
	<g>
		<path fill="#020288" d="M382.5,382c-18.3,0-33.2-14.9-33.2-33.2c0-18.3,14.9-33.2,33.2-33.2c18.3,0,33.2,14.9,33.2,33.2
			C415.7,367.1,400.8,382,382.5,382z M382.5,335.5c-7.3,0-13.2,5.9-13.2,13.2c0,7.3,5.9,13.2,13.2,13.2c7.3,0,13.2-5.9,13.2-13.2
			S389.8,335.5,382.5,335.5z"/>
	</g>
</g>
</svg>
