<?xml version="1.0" encoding="utf-8"?>
<svg viewBox="0 0 500 500" xmlns="http://www.w3.org/2000/svg">
  <title>70 Basic icons by Xicons.co</title>
  <path d="M 440.216 272.572 L 80.339 272.572 C 67.147 272.572 58.903 258.291 65.499 246.866 C 68.56 241.565 74.217 238.298 80.339 238.298 L 440.216 238.298 C 453.408 238.298 461.654 252.579 455.057 264.003 C 451.996 269.305 446.339 272.572 440.216 272.572 Z" style="fill: rgba(0, 0, 0, 0.24);"/>
  <path d="M 217.436 418.236 C 212.899 418.217 208.553 416.398 205.355 413.181 L 59.69 267.516 C 56.471 264.318 54.654 259.972 54.635 255.435 C 54.651 250.822 56.465 246.396 59.69 243.097 L 205.355 97.432 C 214.688 88.098 230.624 92.369 234.041 105.119 C 235.626 111.036 233.935 117.349 229.603 121.681 L 95.849 255.435 L 229.261 388.847 C 238.693 398.068 234.605 414.044 221.903 417.601 C 220.448 418.009 218.946 418.222 217.436 418.236 Z" style="fill: rgba(0, 0, 0, 0.58);"/>
</svg>