<?xml version="1.0" encoding="iso-8859-1"?>
<!-- Generator: Adobe Illustrator 19.0.0, SVG Export Plug-In . SVG Version: 6.00 Build 0)  -->
<svg version="1.1" id="Capa_1" xmlns="http://www.w3.org/2000/svg" xmlns:xlink="http://www.w3.org/1999/xlink" x="0px" y="0px"
	 viewBox="0 0 512 512" style="enable-background:new 0 0 512 512;" xml:space="preserve">
<g>
	<g>
		<path d="M352.485,481.974H159.517c-8.291,0-15.013,6.722-15.013,15.013c0,8.291,6.722,15.013,15.013,15.013h192.968
			c8.291,0,15.013-6.722,15.013-15.013C367.498,488.696,360.776,481.974,352.485,481.974z"/>
	</g>
</g>
<g>
	<g>
		<path d="M465.05,270.789c-8.292,0-15.013-6.722-15.013-15.013c0-8.291,6.723-15.013,15.013-15.013l46.729,0.002
			c-3.319-57.814-25.766-112.006-64.298-155.234l-33.045,33.041c-2.931,2.931-6.774,4.397-10.614,4.397
			c-3.843,0-7.685-1.466-10.616-4.398c-5.862-5.863-5.862-15.368,0.001-21.233l33.043-33.04C383.021,25.766,328.828,3.319,271.014,0
			v46.728c0,8.291-6.722,15.013-15.013,15.013c-8.291,0-15.013-6.722-15.013-15.013V0C183.174,3.319,128.982,25.766,85.754,64.3
			l33.042,33.04c5.863,5.862,5.863,15.367,0,21.232c-2.932,2.932-6.774,4.398-10.616,4.398c-3.842,0-7.684-1.465-10.615-4.398
			l-33.041-33.04C25.99,128.758,3.543,182.951,0.225,240.765l46.726-0.002c8.291,0,15.013,6.721,15.013,15.013
			c0,8.291-6.721,15.013-15.013,15.013L0.21,270.791c2.885,50.424,20.299,98.112,50.808,138.728
			c2.836,3.775,7.282,5.996,12.003,5.996H448.98c4.722,0,9.168-2.222,12.003-5.996c30.508-40.617,47.921-88.305,50.806-138.728
			L465.05,270.789z M350.113,182.895l-40.058,40.059c5.835,9.574,9.2,20.812,9.2,32.822c0,34.879-28.376,63.255-63.254,63.255
			c-34.879,0-63.255-28.377-63.255-63.255c0-34.879,28.377-63.254,63.255-63.254c12.01,0,23.247,3.365,32.823,9.201l40.059-40.059
			c5.862-5.862,15.368-5.862,21.232,0C355.976,167.526,355.976,177.033,350.113,182.895z"/>
	</g>
</g>
<g>
</g>
<g>
</g>
<g>
</g>
<g>
</g>
<g>
</g>
<g>
</g>
<g>
</g>
<g>
</g>
<g>
</g>
<g>
</g>
<g>
</g>
<g>
</g>
<g>
</g>
<g>
</g>
<g>
</g>
</svg>
