<?xml version="1.0" encoding="iso-8859-1"?>
<!-- Generator: Adobe Illustrator 19.0.0, SVG Export Plug-In . SVG Version: 6.00 Build 0)  -->
<svg xmlns="http://www.w3.org/2000/svg" xmlns:xlink="http://www.w3.org/1999/xlink" version="1.1" id="Layer_1" x="0px" y="0px" viewBox="0 0 512 512" style="enable-background:new 0 0 512 512;" xml:space="preserve" width="512" height="512">
<g>
	<path d="M173.5,130v105h-30V130H91c-28.949,0-52.5,23.552-52.5,52.5V317c0,10.339,8.411,18.75,18.75,18.75S76,327.339,76,317V182.5   h30V512h37.5V316.5h30V512H211V130H173.5z"/>
	<path d="M208.5,50c0-27.57-22.43-50-50-50s-50,22.43-50,50s22.43,50,50,50S208.5,77.57,208.5,50z"/>
	<path d="M406,182.5h30V317c0,10.339,8.411,18.75,18.75,18.75s18.75-8.411,18.75-18.75V182.5c0-28.948-23.551-52.5-52.5-52.5h-52.5   v105h-30V130H301v382h37.5V316.5h30V512H406V182.5z"/>
	<path d="M403.5,50c0-27.57-22.43-50-50-50s-50,22.43-50,50s22.43,50,50,50S403.5,77.57,403.5,50z"/>
	<rect x="241" width="30" height="60.333"/>
	<rect x="241" y="90.333" width="30" height="60.334"/>
	<rect x="241" y="180.667" width="30" height="60.333"/>
	<rect x="241" y="271" width="30" height="60.333"/>
	<rect x="241" y="361.333" width="30" height="60.334"/>
	<rect x="241" y="451.667" width="30" height="60.333"/>
</g>















</svg>
