<?xml version="1.0" encoding="utf-8"?>
<!-- Generator: Adobe Illustrator 24.2.0, SVG Export Plug-In . SVG Version: 6.00 Build 0)  -->
<svg version="1.2" baseProfile="tiny" id="Layer_1" xmlns="http://www.w3.org/2000/svg" xmlns:xlink="http://www.w3.org/1999/xlink"
	 x="0px" y="0px" viewBox="0 0 532 109" overflow="visible" xml:space="preserve">
<circle display="none" fill="#F15249" cx="111.3" cy="142" r="244"/>
<path display="none" fill="#C93131" d="M284.1-30.8c95.2,95.2,95.2,249.6,0,344.8s-249.6,95.2-344.8,0"/>
<polygon fill="#FCFBE6" points="12.2,19.4 46.2,6 80.1,19.4 73.1,50 46.2,63.4 19.2,50 "/>
<polygon fill="#EDEBD3" points="77.3,32.3 80.1,19.4 46.2,29.8 12.2,19.4 15.2,32.3 6.4,85.6 46.2,103 85.9,85.6 "/>
<polygon fill="none" points="73.9,47.8 80.6,53.5 77.3,32.3 80,20.2 67.4,34.9 57.8,36.3 50.3,45.7 46.2,62 42,45.7 34.5,36.3 
	24.9,34.9 12.3,20 15.2,32.3 11.7,53.5 18.4,47.8 46.2,80.2 46.2,80.2 "/>
<polygon fill="#C6C2A7" points="58.3,53.7 46,79.9 33.9,53.7 46,44.8 "/>
<polyline fill="#FCCC32" points="46,64.1 56.8,52.9 52.2,48.9 46,39.3 46,39.8 46,39.3 39.9,48.9 35.1,52.9 45,63.1 "/>
<polyline fill="#EFAE0C" points="46,64.1 56.8,52.9 52.2,48.9 46,39.3 46,39.8 46,39.3 "/>
<polygon fill="#5E6664" points="35,43.5 25.4,40.5 25.4,34.9 35,37.9 "/>
<polyline fill="#2F423F" points="35,37.9 35,43.5 25.4,40.5 "/>
<ellipse fill="#7FD6EA" cx="29.9" cy="39.2" rx="2.7" ry="2.4"/>
<path fill="#52C1DB" d="M31.8,37.4c1.1,1,1.1,2.4,0,3.4c-1.1,1-2.7,1-3.8,0"/>
<polygon fill="#5E6664" points="57.3,43.5 66.9,40.5 66.9,34.9 57.3,37.9 "/>
<polyline fill="#2F423F" points="57.3,37.9 57.3,43.5 66.9,40.5 "/>
<ellipse fill="#7FD6EA" cx="62.3" cy="39.2" rx="2.7" ry="2.4"/>
<path fill="#52C1DB" d="M60.4,40.8c1.1,1,2.7,1,3.8,0c1.1-1,1.1-2.4,0-3.4"/>
<g>
	<polygon fill="#FF5253" points="6.4,85.6 12.7,81.5 13.8,87.2 19.4,84.7 21.1,90.2 26.2,87.2 28.6,93.4 33.9,89.8 36.7,96.8 
		41.4,92.3 46.2,103 	"/>
	<polygon fill="#FF5253" points="85.9,85.6 79.7,81.5 78.5,87.2 73,84.7 71.2,90.2 66.1,87.2 63.7,93.4 58.4,89.8 55.6,96.8 
		50.9,92.3 46.2,103 	"/>
</g>
<g>
	<g>
		<path fill="#172B4D" d="M132.5,74.8c1.6,0,2.9,0.5,3.9,1.5c1,1,1.6,2.3,1.6,3.8c0,1.5-0.5,2.7-1.6,3.7c-1.1,1-2.4,1.5-3.9,1.5
			h-29.2c-1.6,0-2.9-0.5-3.9-1.6c-1.1-1-1.6-2.4-1.6-3.9v-52c0-1.6,0.5-2.9,1.6-3.9c1.1-1,2.5-1.6,4.1-1.6c1.4,0,2.7,0.5,3.8,1.6
			c1.1,1.1,1.7,2.4,1.7,3.9v48.5l-2-1.5H132.5z"/>
		<path fill="#172B4D" d="M152.1,31.3c-2,0-3.5-0.3-4.3-1c-0.8-0.7-1.3-1.8-1.3-3.5v-1.7c0-1.7,0.5-2.9,1.4-3.6
			c0.9-0.6,2.4-0.9,4.3-0.9c2.1,0,3.6,0.3,4.4,1c0.8,0.7,1.3,1.8,1.3,3.5v1.7c0,1.7-0.5,2.9-1.3,3.6C155.6,31,154.1,31.3,152.1,31.3
			z M157.6,79.8c0,1.6-0.5,2.9-1.5,3.9c-1,1.1-2.3,1.6-3.9,1.6c-1.6,0-2.9-0.5-3.9-1.6c-1-1-1.5-2.4-1.5-3.9V42.7
			c0-1.6,0.5-2.9,1.5-3.9c1-1,2.3-1.6,3.9-1.6c1.6,0,2.8,0.5,3.9,1.6c1,1.1,1.5,2.4,1.5,3.9V79.8z"/>
		<path fill="#172B4D" d="M193.6,36.3c4.2,0,8,1.1,11.3,3.2c3.3,2.1,6,5.1,7.9,8.8c1.9,3.7,2.9,8,2.9,13c0,4.9-1,9.3-2.9,13
			c-2,3.8-4.6,6.7-7.8,8.8c-3.3,2.1-6.9,3.2-11,3.2c-2.4,0-4.7-0.4-6.8-1.2c-2.1-0.8-3.9-1.8-5.5-3c-1.6-1.2-2.8-2.4-3.7-3.6
			c-0.9-1.2-1.3-2.3-1.3-3.1l2.8-1.2v6.6c0,1.6-0.5,2.9-1.5,3.9c-1,1-2.3,1.6-3.9,1.6c-1.6,0-2.9-0.5-3.9-1.5c-1-1-1.5-2.3-1.5-4
			V24.2c0-1.6,0.5-2.9,1.5-3.9c1-1,2.3-1.6,3.9-1.6c1.6,0,2.8,0.5,3.9,1.6c1,1.1,1.5,2.4,1.5,3.9v22.9l-1.5-0.8
			c0-0.8,0.4-1.7,1.3-2.8c0.8-1.1,2-2.2,3.4-3.3c1.4-1.1,3.1-2,5-2.7C189.5,36.6,191.5,36.3,193.6,36.3z M192.2,46.2
			c-2.6,0-4.9,0.7-6.9,2c-2,1.3-3.5,3.1-4.6,5.4c-1.1,2.2-1.7,4.8-1.7,7.7c0,2.8,0.6,5.4,1.7,7.7c1.1,2.3,2.7,4.1,4.6,5.4
			c2,1.3,4.3,2,6.9,2c2.6,0,4.9-0.7,6.9-2c1.9-1.3,3.5-3.1,4.6-5.4c1.1-2.3,1.7-4.9,1.7-7.7c0-2.9-0.6-5.4-1.7-7.7
			c-1.1-2.2-2.6-4-4.6-5.4C197.2,46.8,194.9,46.2,192.2,46.2z"/>
		<path fill="#172B4D" d="M247,86.2c-5.1,0-9.5-1.1-13.3-3.2c-3.8-2.1-6.6-5-8.6-8.7c-2-3.7-3-7.8-3-12.4c0-5.4,1.1-10,3.3-13.8
			c2.2-3.8,5.1-6.7,8.6-8.8c3.5-2,7.3-3.1,11.2-3.1c3.1,0,6,0.6,8.7,1.9c2.7,1.3,5.1,3,7.2,5.2c2.1,2.2,3.8,4.7,5,7.6
			c1.2,2.9,1.8,5.9,1.8,9.2c-0.1,1.4-0.6,2.6-1.7,3.5s-2.3,1.4-3.8,1.4h-34.4l-2.7-9h33l-2,1.8v-2.4c-0.1-1.7-0.7-3.3-1.8-4.7
			c-1.1-1.4-2.5-2.5-4.1-3.3c-1.7-0.8-3.4-1.2-5.3-1.2c-1.8,0-3.5,0.2-5,0.7c-1.6,0.5-2.9,1.3-4,2.4c-1.1,1.1-2,2.7-2.7,4.6
			c-0.7,1.9-1,4.4-1,7.3c0,3.2,0.7,6,2,8.2c1.3,2.2,3.1,4,5.2,5.1c2.1,1.2,4.4,1.8,6.8,1.8c2.2,0,4-0.2,5.3-0.5
			c1.3-0.4,2.4-0.8,3.2-1.3c0.8-0.5,1.5-0.9,2.2-1.3c1.1-0.5,2.1-0.8,3.1-0.8c1.3,0,2.4,0.5,3.3,1.4c0.9,0.9,1.3,2,1.3,3.1
			c0,1.6-0.8,3.1-2.5,4.4c-1.6,1.3-3.8,2.5-6.6,3.5C252.9,85.7,250,86.2,247,86.2z"/>
		<path fill="#172B4D" d="M282.3,85.3c-1.6,0-2.9-0.5-3.9-1.6c-1-1-1.5-2.4-1.5-3.9V42.7c0-1.6,0.5-2.9,1.5-3.9c1-1,2.3-1.6,3.9-1.6
			c1.6,0,2.8,0.5,3.9,1.6c1,1.1,1.5,2.4,1.5,3.9v8.5l-0.6-6c0.7-1.4,1.5-2.7,2.6-3.8c1-1.1,2.2-2,3.6-2.8c1.3-0.7,2.7-1.3,4.2-1.7
			c1.5-0.4,3-0.5,4.5-0.5c1.8,0,3.3,0.5,4.5,1.5c1.2,1,1.8,2.2,1.8,3.6c0,2-0.5,3.4-1.5,4.3c-1,0.9-2.1,1.3-3.3,1.3
			c-1.1,0-2.2-0.2-3.1-0.6c-0.9-0.4-2-0.6-3.2-0.6c-1.1,0-2.2,0.3-3.3,0.8c-1.1,0.5-2.1,1.3-3.1,2.4c-0.9,1.1-1.7,2.4-2.2,4
			c-0.6,1.6-0.9,3.5-0.9,5.6v21.3c0,1.6-0.5,2.9-1.5,3.9C285.2,84.8,283.9,85.3,282.3,85.3z"/>
		<path fill="#172B4D" d="M316.5,38.1h21.3c1.4,0,2.6,0.5,3.6,1.4c1,1,1.4,2.2,1.4,3.6c0,1.4-0.5,2.5-1.4,3.5
			c-1,0.9-2.2,1.4-3.6,1.4h-21.3c-1.4,0-2.6-0.5-3.6-1.4c-1-1-1.4-2.2-1.4-3.6c0-1.4,0.5-2.5,1.4-3.5
			C313.9,38.5,315.1,38.1,316.5,38.1z M326.2,26.8c1.6,0,2.8,0.5,3.8,1.6c1,1.1,1.5,2.4,1.5,3.9v40c0,0.8,0.2,1.5,0.5,2.1
			c0.3,0.5,0.8,0.9,1.3,1.2c0.6,0.2,1.2,0.4,1.8,0.4c0.7,0,1.4-0.1,2-0.4c0.6-0.3,1.3-0.4,2.1-0.4c0.8,0,1.6,0.4,2.3,1.2
			c0.7,0.8,1,1.9,1,3.2c0,1.7-0.9,3.1-2.7,4.1c-1.8,1.1-3.8,1.6-5.9,1.6c-1.3,0-2.7-0.1-4.2-0.3c-1.5-0.2-3-0.7-4.3-1.5
			c-1.3-0.8-2.5-2.1-3.4-3.7c-0.9-1.7-1.3-4-1.3-6.9V32.3c0-1.6,0.5-2.9,1.6-3.9C323.3,27.3,324.6,26.8,326.2,26.8z"/>
		<path fill="#172B4D" d="M388.5,37.2c1.6,0,2.8,0.5,3.9,1.6c1,1.1,1.5,2.4,1.5,3.9v38.2c0,5.5-1,9.9-3.1,13.2
			c-2.1,3.3-4.8,5.6-8.3,7.1c-3.5,1.4-7.4,2.2-11.7,2.2c-1.9,0-4-0.2-6.1-0.5c-2.2-0.3-3.9-0.8-5.3-1.3c-1.8-0.8-3-1.8-3.7-2.9
			c-0.7-1.2-0.8-2.4-0.4-3.7c0.5-1.7,1.4-2.9,2.6-3.6c1.2-0.6,2.5-0.7,3.8-0.2c1,0.3,2.2,0.8,3.8,1.4c1.6,0.6,3.4,0.9,5.4,0.9
			c2.8,0,5.1-0.4,6.9-1.1c1.8-0.8,3.2-2,4.1-3.8c0.9-1.8,1.4-4.2,1.4-7.2v-6l1.9,2.2c-1,2-2.3,3.6-3.8,4.9c-1.5,1.3-3.3,2.3-5.4,2.9
			c-2.1,0.7-4.5,1-7.2,1c-3.2,0-6-0.7-8.3-2.2c-2.4-1.5-4.2-3.5-5.5-6.1c-1.3-2.6-2-5.6-2-9V42.7c0-1.6,0.5-2.9,1.5-3.9
			c1-1,2.3-1.6,3.9-1.6c1.6,0,2.8,0.5,3.9,1.6c1,1.1,1.5,2.4,1.5,3.9v23c0,3.9,0.9,6.6,2.6,8.2c1.7,1.6,4.1,2.4,7.2,2.4
			c2.1,0,3.9-0.4,5.3-1.2c1.4-0.8,2.5-2,3.3-3.6c0.8-1.6,1.2-3.5,1.2-5.8v-23c0-1.6,0.5-2.9,1.5-3.9C385.7,37.7,387,37.2,388.5,37.2
			z"/>
		<path fill="#172B4D" d="M432.5,22.3c3.1,0,6,0.9,8.8,2.7c2.7,1.8,4.9,4.2,6.6,7.3c1.7,3.1,2.5,6.5,2.5,10.3
			c0,3.7-0.8,7.1-2.5,10.2c-1.7,3.1-3.9,5.5-6.6,7.3c-2.7,1.8-5.7,2.7-8.8,2.7H416l0.9-1.6v18.6c0,1.6-0.5,2.9-1.4,3.9
			c-1,1.1-2.2,1.6-3.8,1.6c-1.5,0-2.7-0.5-3.7-1.6c-1-1-1.4-2.4-1.4-3.9v-52c0-1.6,0.5-2.9,1.6-3.9c1-1,2.4-1.6,3.9-1.6H432.5z
			 M432.5,52.6c1.1,0,2.2-0.5,3.3-1.4c1.1-1,2-2.2,2.7-3.7c0.7-1.5,1.1-3.1,1.1-4.8c0-1.7-0.4-3.4-1.1-4.9c-0.7-1.5-1.6-2.7-2.7-3.6
			c-1.1-0.9-2.2-1.4-3.3-1.4h-16.7l1.1-1.6v23l-1-1.4H432.5z"/>
		<path fill="#172B4D" d="M464.6,31.3c-2,0-3.5-0.3-4.3-1c-0.8-0.7-1.3-1.8-1.3-3.5v-1.7c0-1.7,0.5-2.9,1.4-3.6
			c0.9-0.6,2.4-0.9,4.3-0.9c2.1,0,3.6,0.3,4.4,1c0.8,0.7,1.3,1.8,1.3,3.5v1.7c0,1.7-0.5,2.9-1.3,3.6C468.1,31,466.6,31.3,464.6,31.3
			z M470.1,79.8c0,1.6-0.5,2.9-1.5,3.9c-1,1.1-2.3,1.6-3.9,1.6c-1.6,0-2.9-0.5-3.9-1.6c-1-1-1.5-2.4-1.5-3.9V42.7
			c0-1.6,0.5-2.9,1.5-3.9c1-1,2.3-1.6,3.9-1.6c1.6,0,2.8,0.5,3.9,1.6c1,1.1,1.5,2.4,1.5,3.9V79.8z"/>
		<path fill="#172B4D" d="M503.4,86.2c-5.1,0-9.5-1.1-13.3-3.2c-3.8-2.1-6.6-5-8.6-8.7c-2-3.7-3-7.8-3-12.4c0-5.4,1.1-10,3.3-13.8
			c2.2-3.8,5.1-6.7,8.6-8.8c3.5-2,7.3-3.1,11.2-3.1c3.1,0,6,0.6,8.7,1.9c2.7,1.3,5.1,3,7.2,5.2c2.1,2.2,3.8,4.7,5,7.6
			c1.2,2.9,1.8,5.9,1.8,9.2c-0.1,1.4-0.6,2.6-1.7,3.5s-2.3,1.4-3.8,1.4h-34.4l-2.7-9h33l-2,1.8v-2.4c-0.1-1.7-0.7-3.3-1.8-4.7
			c-1.1-1.4-2.5-2.5-4.1-3.3c-1.7-0.8-3.4-1.2-5.3-1.2c-1.8,0-3.5,0.2-5,0.7c-1.6,0.5-2.9,1.3-4,2.4c-1.1,1.1-2,2.7-2.7,4.6
			c-0.7,1.9-1,4.4-1,7.3c0,3.2,0.7,6,2,8.2c1.3,2.2,3.1,4,5.2,5.1c2.1,1.2,4.4,1.8,6.8,1.8c2.2,0,4-0.2,5.3-0.5
			c1.3-0.4,2.4-0.8,3.2-1.3c0.8-0.5,1.5-0.9,2.2-1.3c1.1-0.5,2.1-0.8,3.1-0.8c1.3,0,2.4,0.5,3.3,1.4c0.9,0.9,1.3,2,1.3,3.1
			c0,1.6-0.8,3.1-2.5,4.4c-1.6,1.3-3.8,2.5-6.6,3.5C509.3,85.7,506.4,86.2,503.4,86.2z"/>
	</g>
</g>
</svg>
