<?xml version="1.0" encoding="UTF-8"?>
<svg overflow="visible" baseProfile="tiny" version="1.2" viewBox="0 0 532 109" xml:space="preserve" xmlns="http://www.w3.org/2000/svg">
<circle cx="111.3" cy="142" r="244" display="none" fill="#F15249"/>
<path d="m284.1-30.8c95.2 95.2 95.2 249.6 0 344.8s-249.6 95.2-344.8 0" display="none" fill="#C93131"/>
<polygon points="15 22.4 46.5 10 77.9 22.4 71.4 50.7 46.5 63.1 21.5 50.7" fill="#FCFBE6"/>
<polygon points="75.2 34.4 77.9 22.4 46.5 32 15 22.4 17.8 34.4 9.7 83.6 46.5 99.7 83.2 83.6" fill="#EDEBD3"/>
<polygon points="72.1 48.7 78.3 54 75.2 34.4 77.7 23.2 66.1 36.7 57.2 38.1 50.3 46.8 46.5 61.8 42.6 46.8 35.7 38.1 26.8 36.7 15.2 23 17.8 34.4 14.6 54 20.8 48.7 46.5 78.6 46.5 78.6" fill="none"/>
<polygon points="57.7 54.1 46.3 78.3 35.1 54.1 46.3 45.9" fill="#C6C2A7"/>
<polyline points="46.3 63.7 56.3 53.4 52.1 49.7 46.3 40.9 46.3 41.3 46.3 40.9 40.7 49.7 36.3 53.4 45.4 62.8" fill="#FCCC32"/>
<polyline points="46.3 63.7 56.3 53.4 52.1 49.7 46.3 40.9 46.3 41.3 46.3 40.9" fill="#EFAE0C"/>
<polygon points="36.1 44.7 27.3 41.9 27.3 36.7 36.1 39.5" fill="#5E6664"/>
<polyline points="36.1 39.5 36.1 44.7 27.3 41.9" fill="#2F423F"/>
<ellipse cx="31.4" cy="40.7" rx="2.5" ry="2.2" fill="#7FD6EA"/>
<path d="m33.2 39.1c1 0.9 1 2.2 0 3.1s-2.5 0.9-3.5 0" fill="#52C1DB"/>
<polygon points="56.8 44.7 65.6 41.9 65.6 36.7 56.8 39.5" fill="#5E6664"/>
<polyline points="56.8 39.5 56.8 44.7 65.6 41.9" fill="#2F423F"/>
<ellipse cx="61.4" cy="40.7" rx="2.5" ry="2.2" fill="#7FD6EA"/>
<path d="m59.6 42.2c1 0.9 2.5 0.9 3.5 0s1-2.2 0-3.1" fill="#52C1DB"/>
<g fill="#DDDAC0">
	<polygon points="9.7 83.6 15.5 79.8 16.5 85.1 21.7 82.7 23.3 87.9 28 85.1 30.2 90.9 35.1 87.5 37.8 94 42 89.8 46.5 99.7"/>
	<polygon points="83.2 83.6 77.4 79.8 76.4 85.1 71.2 82.7 69.6 87.9 64.9 85.1 62.7 90.9 57.8 87.5 55.2 94 50.9 89.8 46.5 99.7"/>
</g>

	<g fill="#263238">
		<path d="m132.5 74.8c1.6 0 2.9 0.5 3.9 1.5s1.6 2.3 1.6 3.8-0.5 2.7-1.6 3.7-2.4 1.5-3.9 1.5h-29.2c-1.6 0-2.9-0.5-3.9-1.6-1.1-1-1.6-2.4-1.6-3.9v-52c0-1.6 0.5-2.9 1.6-3.9s2.5-1.6 4.1-1.6c1.4 0 2.7 0.5 3.8 1.6s1.7 2.4 1.7 3.9v48.5l-2-1.5h25.5z"/>
		<path d="m152.1 31.3c-2 0-3.5-0.3-4.3-1s-1.3-1.8-1.3-3.5v-1.7c0-1.7 0.5-2.9 1.4-3.6 0.9-0.6 2.4-0.9 4.3-0.9 2.1 0 3.6 0.3 4.4 1s1.3 1.8 1.3 3.5v1.7c0 1.7-0.5 2.9-1.3 3.6-1 0.6-2.5 0.9-4.5 0.9zm5.5 48.5c0 1.6-0.5 2.9-1.5 3.9-1 1.1-2.3 1.6-3.9 1.6s-2.9-0.5-3.9-1.6c-1-1-1.5-2.4-1.5-3.9v-37.1c0-1.6 0.5-2.9 1.5-3.9s2.3-1.6 3.9-1.6 2.8 0.5 3.9 1.6c1 1.1 1.5 2.4 1.5 3.9v37.1z"/>
		<path d="m193.6 36.3c4.2 0 8 1.1 11.3 3.2s6 5.1 7.9 8.8 2.9 8 2.9 13c0 4.9-1 9.3-2.9 13-2 3.8-4.6 6.7-7.8 8.8-3.3 2.1-6.9 3.2-11 3.2-2.4 0-4.7-0.4-6.8-1.2s-3.9-1.8-5.5-3-2.8-2.4-3.7-3.6-1.3-2.3-1.3-3.1l2.8-1.2v6.6c0 1.6-0.5 2.9-1.5 3.9s-2.3 1.6-3.9 1.6-2.9-0.5-3.9-1.5-1.5-2.3-1.5-4v-56.6c0-1.6 0.5-2.9 1.5-3.9s2.3-1.6 3.9-1.6 2.8 0.5 3.9 1.6c1 1.1 1.5 2.4 1.5 3.9v22.9l-1.5-0.8c0-0.8 0.4-1.7 1.3-2.8 0.8-1.1 2-2.2 3.4-3.3s3.1-2 5-2.7c1.8-0.9 3.8-1.2 5.9-1.2zm-1.4 9.9c-2.6 0-4.9 0.7-6.9 2s-3.5 3.1-4.6 5.4c-1.1 2.2-1.7 4.8-1.7 7.7 0 2.8 0.6 5.4 1.7 7.7s2.7 4.1 4.6 5.4c2 1.3 4.3 2 6.9 2s4.9-0.7 6.9-2c1.9-1.3 3.5-3.1 4.6-5.4s1.7-4.9 1.7-7.7c0-2.9-0.6-5.4-1.7-7.7-1.1-2.2-2.6-4-4.6-5.4-1.9-1.4-4.2-2-6.9-2z"/>
		<path d="m247 86.2c-5.1 0-9.5-1.1-13.3-3.2s-6.6-5-8.6-8.7-3-7.8-3-12.4c0-5.4 1.1-10 3.3-13.8s5.1-6.7 8.6-8.8c3.5-2 7.3-3.1 11.2-3.1 3.1 0 6 0.6 8.7 1.9s5.1 3 7.2 5.2 3.8 4.7 5 7.6 1.8 5.9 1.8 9.2c-0.1 1.4-0.6 2.6-1.7 3.5s-2.3 1.4-3.8 1.4h-34.4l-2.7-9h33l-2 1.8v-2.4c-0.1-1.7-0.7-3.3-1.8-4.7s-2.5-2.5-4.1-3.3c-1.7-0.8-3.4-1.2-5.3-1.2-1.8 0-3.5 0.2-5 0.7-1.6 0.5-2.9 1.3-4 2.4s-2 2.7-2.7 4.6-1 4.4-1 7.3c0 3.2 0.7 6 2 8.2s3.1 4 5.2 5.1c2.1 1.2 4.4 1.8 6.8 1.8 2.2 0 4-0.2 5.3-0.5 1.3-0.4 2.4-0.8 3.2-1.3s1.5-0.9 2.2-1.3c1.1-0.5 2.1-0.8 3.1-0.8 1.3 0 2.4 0.5 3.3 1.4s1.3 2 1.3 3.1c0 1.6-0.8 3.1-2.5 4.4-1.6 1.3-3.8 2.5-6.6 3.5-2.8 0.9-5.7 1.4-8.7 1.4z"/>
		<path d="m282.3 85.3c-1.6 0-2.9-0.5-3.9-1.6-1-1-1.5-2.4-1.5-3.9v-37.1c0-1.6 0.5-2.9 1.5-3.9s2.3-1.6 3.9-1.6 2.8 0.5 3.9 1.6c1 1.1 1.5 2.4 1.5 3.9v8.5l-0.6-6c0.7-1.4 1.5-2.7 2.6-3.8 1-1.1 2.2-2 3.6-2.8 1.3-0.7 2.7-1.3 4.2-1.7s3-0.5 4.5-0.5c1.8 0 3.3 0.5 4.5 1.5s1.8 2.2 1.8 3.6c0 2-0.5 3.4-1.5 4.3s-2.1 1.3-3.3 1.3c-1.1 0-2.2-0.2-3.1-0.6s-2-0.6-3.2-0.6c-1.1 0-2.2 0.3-3.3 0.8s-2.1 1.3-3.1 2.4c-0.9 1.1-1.7 2.4-2.2 4-0.6 1.6-0.9 3.5-0.9 5.6v21.3c0 1.6-0.5 2.9-1.5 3.9-1 0.9-2.3 1.4-3.9 1.4z"/>
		<path d="m316.5 38.1h21.3c1.4 0 2.6 0.5 3.6 1.4 1 1 1.4 2.2 1.4 3.6s-0.5 2.5-1.4 3.5c-1 0.9-2.2 1.4-3.6 1.4h-21.3c-1.4 0-2.6-0.5-3.6-1.4-1-1-1.4-2.2-1.4-3.6s0.5-2.5 1.4-3.5c1-1 2.2-1.4 3.6-1.4zm9.7-11.3c1.6 0 2.8 0.5 3.8 1.6s1.5 2.4 1.5 3.9v40c0 0.8 0.2 1.5 0.5 2.1 0.3 0.5 0.8 0.9 1.3 1.2 0.6 0.2 1.2 0.4 1.8 0.4 0.7 0 1.4-0.1 2-0.4s1.3-0.4 2.1-0.4 1.6 0.4 2.3 1.2 1 1.9 1 3.2c0 1.7-0.9 3.1-2.7 4.1-1.8 1.1-3.8 1.6-5.9 1.6-1.3 0-2.7-0.1-4.2-0.3s-3-0.7-4.3-1.5-2.5-2.1-3.4-3.7c-0.9-1.7-1.3-4-1.3-6.9v-40.6c0-1.6 0.5-2.9 1.6-3.9 1-1.1 2.3-1.6 3.9-1.6z"/>
		<path d="m388.5 37.2c1.6 0 2.8 0.5 3.9 1.6 1 1.1 1.5 2.4 1.5 3.9v38.2c0 5.5-1 9.9-3.1 13.2s-4.8 5.6-8.3 7.1c-3.5 1.4-7.4 2.2-11.7 2.2-1.9 0-4-0.2-6.1-0.5-2.2-0.3-3.9-0.8-5.3-1.3-1.8-0.8-3-1.8-3.7-2.9-0.7-1.2-0.8-2.4-0.4-3.7 0.5-1.7 1.4-2.9 2.6-3.6 1.2-0.6 2.5-0.7 3.8-0.2 1 0.3 2.2 0.8 3.8 1.4s3.4 0.9 5.4 0.9c2.8 0 5.1-0.4 6.9-1.1 1.8-0.8 3.2-2 4.1-3.8s1.4-4.2 1.4-7.2v-6l1.9 2.2c-1 2-2.3 3.6-3.8 4.9s-3.3 2.3-5.4 2.9c-2.1 0.7-4.5 1-7.2 1-3.2 0-6-0.7-8.3-2.2-2.4-1.5-4.2-3.5-5.5-6.1s-2-5.6-2-9v-26.4c0-1.6 0.5-2.9 1.5-3.9s2.3-1.6 3.9-1.6 2.8 0.5 3.9 1.6c1 1.1 1.5 2.4 1.5 3.9v23c0 3.9 0.9 6.6 2.6 8.2s4.1 2.4 7.2 2.4c2.1 0 3.9-0.4 5.3-1.2s2.5-2 3.3-3.6 1.2-3.5 1.2-5.8v-23c0-1.6 0.5-2.9 1.5-3.9 0.8-1.1 2.1-1.6 3.6-1.6z"/>
		<path d="m432.5 22.3c3.1 0 6 0.9 8.8 2.7 2.7 1.8 4.9 4.2 6.6 7.3s2.5 6.5 2.5 10.3c0 3.7-0.8 7.1-2.5 10.2s-3.9 5.5-6.6 7.3-5.7 2.7-8.8 2.7h-16.5l0.9-1.6v18.6c0 1.6-0.5 2.9-1.4 3.9-1 1.1-2.2 1.6-3.8 1.6-1.5 0-2.7-0.5-3.7-1.6-1-1-1.4-2.4-1.4-3.9v-52c0-1.6 0.5-2.9 1.6-3.9 1-1 2.4-1.6 3.9-1.6h20.4zm0 30.3c1.1 0 2.2-0.5 3.3-1.4 1.1-1 2-2.2 2.7-3.7s1.1-3.1 1.1-4.8-0.4-3.4-1.1-4.9-1.6-2.7-2.7-3.6-2.2-1.4-3.3-1.4h-16.7l1.1-1.6v23l-1-1.4h16.6z"/>
		<path d="m464.6 31.3c-2 0-3.5-0.3-4.3-1s-1.3-1.8-1.3-3.5v-1.7c0-1.7 0.5-2.9 1.4-3.6 0.9-0.6 2.4-0.9 4.3-0.9 2.1 0 3.6 0.3 4.4 1s1.3 1.8 1.3 3.5v1.7c0 1.7-0.5 2.9-1.3 3.6-1 0.6-2.5 0.9-4.5 0.9zm5.5 48.5c0 1.6-0.5 2.9-1.5 3.9-1 1.1-2.3 1.6-3.9 1.6s-2.9-0.5-3.9-1.6c-1-1-1.5-2.4-1.5-3.9v-37.1c0-1.6 0.5-2.9 1.5-3.9s2.3-1.6 3.9-1.6 2.8 0.5 3.9 1.6c1 1.1 1.5 2.4 1.5 3.9v37.1z"/>
		<path d="m503.4 86.2c-5.1 0-9.5-1.1-13.3-3.2s-6.6-5-8.6-8.7-3-7.8-3-12.4c0-5.4 1.1-10 3.3-13.8s5.1-6.7 8.6-8.8c3.5-2 7.3-3.1 11.2-3.1 3.1 0 6 0.6 8.7 1.9s5.1 3 7.2 5.2 3.8 4.7 5 7.6 1.8 5.9 1.8 9.2c-0.1 1.4-0.6 2.6-1.7 3.5s-2.3 1.4-3.8 1.4h-34.4l-2.7-9h33l-2 1.8v-2.4c-0.1-1.7-0.7-3.3-1.8-4.7s-2.5-2.5-4.1-3.3c-1.7-0.8-3.4-1.2-5.3-1.2-1.8 0-3.5 0.2-5 0.7-1.6 0.5-2.9 1.3-4 2.4s-2 2.7-2.7 4.6-1 4.4-1 7.3c0 3.2 0.7 6 2 8.2s3.1 4 5.2 5.1c2.1 1.2 4.4 1.8 6.8 1.8 2.2 0 4-0.2 5.3-0.5 1.3-0.4 2.4-0.8 3.2-1.3s1.5-0.9 2.2-1.3c1.1-0.5 2.1-0.8 3.1-0.8 1.3 0 2.4 0.5 3.3 1.4s1.3 2 1.3 3.1c0 1.6-0.8 3.1-2.5 4.4-1.6 1.3-3.8 2.5-6.6 3.5-2.8 0.9-5.7 1.4-8.7 1.4z"/>
	</g>

</svg>
