<?xml version="1.0" encoding="utf-8"?>
<!-- Generator: Adobe Illustrator 24.2.0, SVG Export Plug-In . SVG Version: 6.00 Build 0)  -->
<svg version="1.1" xmlns="http://www.w3.org/2000/svg" xmlns:xlink="http://www.w3.org/1999/xlink" x="0px" y="0px"
	 viewBox="0 0 192 144" style="enable-background:new 0 0 192 144;" xml:space="preserve">
<style type="text/css">
	.st0{display:none;}
	.st1{display:inline;fill-rule:evenodd;clip-rule:evenodd;fill:#FFFFFF;}
	.st2{clip-path:url(#SVGID_2_);}
	.st3{fill-rule:evenodd;clip-rule:evenodd;fill:#00647E;}
	.st4{opacity:0.8;fill-rule:evenodd;clip-rule:evenodd;fill:#00647E;}
	.st5{opacity:0.9;fill-rule:evenodd;clip-rule:evenodd;fill:#FF4A4E;}
	.st6{opacity:0.8;}
	.st7{fill:#00647E;}
	.st8{opacity:0.9;}
	.st9{fill:#FF4A4E;}
</style>
<g id="BG" class="st0">
	<rect class="st1" width="192" height="144"/>
</g>
<g id="Object">
	<g>
		<defs>
			<rect id="SVGID_1_" width="192" height="144"/>
		</defs>
		<clipPath id="SVGID_2_">
			<use xlink:href="#SVGID_1_"  style="overflow:visible;"/>
		</clipPath>
		<g class="st2">
			<path class="st3" d="M64.4,61.6L36.6,33.8c-4.6-4.6-12.1-4.6-16.7,0L-8,61.6c-4.6,4.6-4.6,12.1,0,16.7l27.9,27.9
				c4.6,4.6,12.1,4.6,16.7,0l27.9-27.9C69,73.7,69,66.2,64.4,61.6z"/>
			<path class="st4" d="M71.2,120.8l-5-5c-0.8-0.8-2.2-0.8-3,0l-5,5c-0.8,0.8-0.8,2.2,0,3l5,5c0.8,0.8,2.2,0.8,3,0l5-5
				C72,123,72,121.6,71.2,120.8z"/>
			<path class="st4" d="M21.3,20.7l-5-5c-0.8-0.8-2.2-0.8-3,0l-5,5c-0.8,0.8-0.8,2.2,0,3l5,5c0.8,0.8,2.2,0.8,3,0l5-5
				C22.1,22.9,22.1,21.6,21.3,20.7z"/>
			<path class="st5" d="M190.6,34.9l-6.5-6.5c-1.1-1.1-2.8-1.1-3.9,0l-6.5,6.5c-1.1,1.1-1.1,2.8,0,3.9l6.5,6.5
				c1.1,1.1,2.8,1.1,3.9,0l6.5-6.5C191.7,37.7,191.7,36,190.6,34.9z"/>
			<path class="st5" d="M21.1,125.2l-6.5-6.5c-1.1-1.1-2.8-1.1-3.9,0l-6.5,6.5c-1.1,1.1-1.1,2.8,0,3.9l6.5,6.5
				c1.1,1.1,2.8,1.1,3.9,0l6.5-6.5C22.1,128,22.1,126.3,21.1,125.2z"/>
			<path class="st5" d="M204.3,86.7L179,61.5c-4.2-4.2-11-4.2-15.1,0l-25.3,25.3c-4.2,4.2-4.2,11,0,15.1l25.3,25.3
				c4.2,4.2,11,4.2,15.1,0l25.3-25.3C208.5,97.7,208.5,90.9,204.3,86.7z"/>
			<path class="st4" d="M169,42.5l-10.8-10.8c-1.8-1.8-4.7-1.8-6.5,0l-10.8,10.8c-1.8,1.8-1.8,4.7,0,6.5l10.8,10.8
				c1.8,1.8,4.7,1.8,6.5,0L169,49C170.8,47.2,170.8,44.3,169,42.5z"/>
			<g class="st6">
				<path class="st7" d="M102.4,135.7c-1.3,0-2.5-0.5-3.5-1.4l-10.8-10.8c-0.9-0.9-1.4-2.2-1.4-3.5c0-1.3,0.5-2.5,1.4-3.5l10.8-10.8
					c1.9-1.9,5-1.9,6.9,0l10.8,10.8c0.9,0.9,1.4,2.2,1.4,3.5c0,1.3-0.5,2.5-1.4,3.5l-10.8,10.8C104.9,135.2,103.6,135.7,102.4,135.7
					z M102.4,104.8c-1.1,0-2.2,0.4-3,1.3l-10.8,10.8c-0.8,0.8-1.3,1.9-1.3,3c0,1.1,0.4,2.2,1.3,3l10.8,10.8c1.7,1.7,4.4,1.7,6,0
					l10.8-10.8c0.8-0.8,1.3-1.9,1.3-3c0-1.1-0.4-2.2-1.3-3l-10.8-10.8C104.6,105.3,103.5,104.8,102.4,104.8z"/>
			</g>
			<g class="st6">
				<path class="st7" d="M56.3,42.3c-1.3,0-2.5-0.5-3.5-1.4L42,30c-0.9-0.9-1.4-2.2-1.4-3.5c0-1.3,0.5-2.5,1.4-3.5l10.8-10.8
					c1.9-1.9,5-1.9,6.9,0l10.8,10.8c0.9,0.9,1.4,2.2,1.4,3.5c0,1.3-0.5,2.5-1.4,3.5L59.7,40.8C58.8,41.8,57.5,42.3,56.3,42.3z
					 M56.3,11.4c-1.1,0-2.2,0.4-3,1.3L42.4,23.5c-0.8,0.8-1.3,1.9-1.3,3c0,1.1,0.4,2.2,1.3,3l10.8,10.8c1.7,1.7,4.4,1.7,6,0
					l10.8-10.8c0.8-0.8,1.3-1.9,1.3-3c0-1.1-0.4-2.2-1.3-3L59.3,12.7C58.5,11.8,57.4,11.4,56.3,11.4z"/>
			</g>
			<g class="st6">
				<path class="st7" d="M150.9,125.6c-0.9,0-1.8-0.3-2.4-1l-7.4-7.4c-1.3-1.3-1.3-3.5,0-4.8l7.4-7.4c1.3-1.3,3.5-1.3,4.8,0l7.4,7.4
					c1.3,1.3,1.3,3.5,0,4.8l-7.4,7.4C152.7,125.3,151.8,125.6,150.9,125.6z M150.9,104.6c-0.7,0-1.5,0.3-2,0.8l-7.4,7.4
					c-1.1,1.1-1.1,2.9,0,4l7.4,7.4c1.1,1.1,2.9,1.1,4,0l7.4-7.4c1.1-1.1,1.1-2.9,0-4l-7.4-7.4C152.4,104.9,151.6,104.6,150.9,104.6z
					"/>
			</g>
			<g class="st6">
				<path class="st7" d="M42.7,128.2c-0.8,0-1.7-0.3-2.3-1l-7-7c-1.3-1.3-1.3-3.4,0-4.7l7-7c1.3-1.3,3.4-1.3,4.7,0l7,7
					c1.3,1.3,1.3,3.4,0,4.7l-7,7C44.4,127.9,43.6,128.2,42.7,128.2z M42.7,108.2c-0.7,0-1.4,0.3-1.9,0.8l-7,7c-1,1-1,2.7,0,3.8l7,7
					c1,1,2.7,1,3.8,0l7-7c1-1,1-2.7,0-3.8l-7-7C44.1,108.4,43.4,108.2,42.7,108.2z"/>
			</g>
			<g class="st6">
				<path class="st7" d="M135.5,35.7c-0.8,0-1.7-0.3-2.3-1l-7-7c-1.3-1.3-1.3-3.4,0-4.7l7-7c1.3-1.3,3.4-1.3,4.7,0l7,7
					c1.3,1.3,1.3,3.4,0,4.7l-7,7C137.2,35.4,136.3,35.7,135.5,35.7z M135.5,15.7c-0.7,0-1.4,0.3-1.9,0.8l-7,7c-1,1-1,2.7,0,3.8l7,7
					c1,1,2.7,1,3.8,0l7-7c1-1,1-2.7,0-3.8l-7-7C136.8,16,136.2,15.7,135.5,15.7z"/>
			</g>
			<g class="st8">
				<path class="st9" d="M98.6,36.9c-0.8,0-1.7-0.3-2.3-1l-7-7c-1.3-1.3-1.3-3.4,0-4.7l7-7c1.3-1.3,3.4-1.3,4.7,0l7,7
					c1.3,1.3,1.3,3.4,0,4.7l-7,7C100.3,36.5,99.4,36.9,98.6,36.9z M98.6,16.8c-0.7,0-1.4,0.3-1.9,0.8l-7,7c-1,1-1,2.7,0,3.8l7,7
					c1,1,2.7,1,3.8,0l7-7c1-1,1-2.7,0-3.8l-7-7C99.9,17.1,99.3,16.8,98.6,16.8z"/>
			</g>
			<path class="st3" d="M145.1,66.3L132.8,54c-2-2-5.3-2-7.3,0l-12.3,12.3c-2,2-2,5.3,0,7.3l12.3,12.3c2,2,5.3,2,7.3,0l12.3-12.3
				C147.1,71.6,147.1,68.3,145.1,66.3z"/>
			<path class="st3" d="M120,45.8l-8.8-8.8c-1.5-1.5-3.8-1.5-5.3,0L97,45.8c-1.5,1.5-1.5,3.8,0,5.3l8.8,8.8c1.5,1.5,3.8,1.5,5.3,0
				l8.8-8.8C121.4,49.6,121.4,47.2,120,45.8z"/>
			<path class="st5" d="M72.1,90.6L59.9,78.4c-2-2-5.3-2-7.3,0L40.4,90.6c-2,2-2,5.3,0,7.3l12.2,12.2c2,2,5.3,2,7.3,0L72.1,98
				C74.1,95.9,74.1,92.7,72.1,90.6z"/>
			<path class="st5" d="M104.7,51.5L85.8,32.6c-3.1-3.1-8.2-3.1-11.3,0L55.7,51.5c-3.1,3.1-3.1,8.2,0,11.3l18.8,18.8
				c3.1,3.1,8.2,3.1,11.3,0l18.8-18.8C107.8,59.6,107.8,54.6,104.7,51.5z"/>
			<path class="st4" d="M101.8,80.5L90.1,68.8c-1.9-1.9-5-1.9-7,0L71.5,80.5c-1.9,1.9-1.9,5,0,7l11.6,11.6c1.9,1.9,5,1.9,7,0
				l11.6-11.6C103.7,85.5,103.7,82.4,101.8,80.5z"/>
			<path class="st5" d="M117.3,87.2l-7.9-7.9c-1.3-1.3-3.4-1.3-4.7,0l-7.9,7.9c-1.3,1.3-1.3,3.4,0,4.7l7.9,7.9
				c1.3,1.3,3.4,1.3,4.7,0l7.9-7.9C118.6,90.6,118.6,88.5,117.3,87.2z"/>
			<g class="st8">
				<path class="st9" d="M122.9,63.8c-1,0-2.1-0.4-2.9-1.2l-8.8-8.8c-0.8-0.8-1.2-1.8-1.2-2.9c0-1.1,0.4-2.1,1.2-2.9l8.8-8.8
					c1.6-1.6,4.1-1.6,5.7,0l8.8,8.8c0.8,0.8,1.2,1.8,1.2,2.9c0,1.1-0.4,2.1-1.2,2.9l-8.8,8.8C125,63.4,124,63.8,122.9,63.8z
					 M122.9,38.7c-0.9,0-1.8,0.3-2.4,1l-8.8,8.8c-0.6,0.6-1,1.5-1,2.4c0,0.9,0.4,1.8,1,2.4l8.8,8.8c1.3,1.3,3.5,1.3,4.8,0l8.8-8.8
					c0.6-0.6,1-1.5,1-2.4c0-0.9-0.4-1.8-1-2.4l-8.8-8.8C124.7,39,123.8,38.7,122.9,38.7z"/>
			</g>
			<g class="st8">
				<path class="st9" d="M75.9,115.1c-0.6,0-1.1-0.2-1.5-0.6l-4.4-4.4c-0.4-0.4-0.6-1-0.6-1.5c0-0.6,0.2-1.1,0.6-1.5l4.4-4.4
					c0.8-0.8,2.3-0.8,3.1,0l4.4,4.4c0.4,0.4,0.6,1,0.6,1.5c0,0.6-0.2,1.1-0.6,1.5l-4.4,4.4C77,114.9,76.5,115.1,75.9,115.1z
					 M75.9,102.5c-0.4,0-0.8,0.2-1.1,0.5l-4.4,4.4c-0.3,0.3-0.5,0.7-0.5,1.1c0,0.4,0.2,0.8,0.5,1.1l4.4,4.4c0.6,0.6,1.6,0.6,2.2,0
					l4.4-4.4c0.3-0.3,0.5-0.7,0.5-1.1c0-0.4-0.2-0.8-0.5-1.1L77,103C76.7,102.7,76.3,102.5,75.9,102.5z"/>
			</g>
			<g class="st8">
				<path class="st9" d="M122.9,108.1c-0.6,0-1.1-0.2-1.5-0.6l-4.4-4.4c-0.8-0.8-0.8-2.2,0-3.1l4.4-4.4c0.8-0.8,2.3-0.8,3.1,0
					l4.4,4.4c0.8,0.8,0.8,2.2,0,3.1l-4.4,4.4C124,107.9,123.5,108.1,122.9,108.1z M122.9,95.6c-0.4,0-0.8,0.2-1.1,0.5l-4.4,4.4
					c-0.6,0.6-0.6,1.6,0,2.2l4.4,4.4c0.6,0.6,1.6,0.6,2.2,0l4.4-4.4c0.6-0.6,0.6-1.6,0-2.2L124,96C123.7,95.8,123.3,95.6,122.9,95.6
					z"/>
			</g>
		</g>
	</g>
</g>
</svg>
