<svg height="396pt" viewBox="0 0 396 396.54035" width="396pt" xmlns="http://www.w3.org/2000/svg"><path d="m201.84375 110.957031c11.207031 0 20.328125-11.34375 20.328125-25.289062 0-13.941407-9.121094-25.285157-20.328125-25.285157-11.210938 0-20.332031 11.34375-20.332031 25.285157 0 13.9375 9.121093 25.289062 20.332031 25.289062zm0 0"/><path d="m127.332031 170.589844-.019531.285156c-.714844 12.484375 6.371094 24.21875 18.050781 29.898438l.152344.074218c8.925781 4.277344 16.234375 11.316406 20.847656 20.074219l.082031.148437c6.207032 11.441407 18.484376 18.238282 31.472657 17.425782l.28125-.015625c.886719-.046875 1.773437-.070313 2.65625-.070313 9.117187-.007812 18.050781 2.578125 25.753906 7.460938 11.230469 7.023437 25.488281 7.023437 36.722656 0 8.46875-5.367188 18.402344-7.949219 28.410157-7.386719l.277343.015625c12.984375.820312 25.261719-5.976562 31.464844-17.414062l.0625-.117188c4.621094-8.785156 11.949219-15.84375 20.898437-20.132812l.121094-.058594c11.683594-5.675782 18.769532-17.410156 18.054688-29.898438l-.015625-.273437c-.535157-9.855469 2.203125-19.613281 7.792969-27.75 7.140624-10.414063 7.140624-24.148438 0-34.5625-5.589844-8.136719-8.332032-17.894531-7.800782-27.75l.015625-.28125c.714844-12.484375-6.371093-24.21875-18.050781-29.902344l-.132812-.0625c-8.933594-4.28125-16.25-11.320313-20.867188-20.082031l-.101562-.195313c-5.90625-11.246093-18.253907-18.074219-31.449219-17.378906l-.285157.015625c-10.003906.554688-19.933593-2.027344-28.402343-7.390625-11.234375-7.019531-25.488281-7.019531-36.722657 0-8.46875 5.363281-18.398437 7.945313-28.410156 7.386719l-.273437-.015625c-13.195313-.699219-25.546875 6.136719-31.46875 17.410156l-.074219.148437c-4.621094 8.769532-11.945312 15.820313-20.890625 20.105469l-.136719.066407c-11.503906 5.394531-18.621094 17.195312-18.035156 29.886718l.015625.273438c.535156 9.855468-2.207031 19.613281-7.792969 27.753906-7.140625 10.414062-7.140625 24.148438 0 34.5625 5.585938 8.136719 8.328125 17.890625 7.796875 27.746094zm195.089844-5.128906c0 21.664062-15.402344 39.285156-34.332031 39.285156-18.929688 0-34.328125-17.621094-34.328125-39.285156 0-21.660157 15.398437-39.285157 34.328125-39.285157 18.929687 0 34.332031 17.621094 34.332031 39.289063zm-36.007813-119.511719c2.046876-3.28125 6.367188-4.28125 9.648438-2.230469 3.28125 2.046875 4.277344 6.367188 2.230469 9.648438l-94.769531 151.820312c-2.046876 3.277344-6.363282 4.277344-9.644532 2.230469-3.277344-2.046875-4.277344-6.367188-2.230468-9.644531zm-84.570312.433593c18.929688 0 34.328125 17.625 34.328125 39.285157 0 21.664062-15.398437 39.289062-34.328125 39.289062s-34.332031-17.625-34.332031-39.289062c0-21.660157 15.402343-39.285157 34.332031-39.285157zm0 0"/><path d="m267.761719 165.464844c0 13.945312 9.121093 25.289062 20.328125 25.289062 11.210937 0 20.332031-11.34375 20.332031-25.289062 0-13.941406-9.121094-25.285156-20.332031-25.285156-11.210938 0-20.328125 11.335937-20.328125 25.285156zm0 0"/><path d="m367.03125 295.484375c-.054688.027344-.109375.054687-.164062.082031l-64.972657 30.699219c.695313 3.601563.996094 7.265625.898438 10.929687-.105469 3.789063-3.203125 6.804688-6.992188 6.804688h-.203125l-95.09375-2.617188c-3.867187-.105468-6.914062-3.324218-6.808594-7.191406.105469-3.863281 3.328126-6.914062 7.191407-6.808594l87.425781 2.40625c-2.886719-16.953124-17.347656-29.511718-34.542969-29.988281l-57.847656-1.59375c-11.425781-.328125-22.628906-3.222656-32.785156-8.464843l-5.882813-3.050782c-28.914062-15.0625-63.746094-13.101562-90.785156 5.113282l-2.3125 84.160156 9.941406-5.320313c9.878906-5.3125 21.441406-6.578125 32.234375-3.527343l98.179688 27.558593c18.925781 3.875 38.589843 1.675781 56.191406-6.28125l136.015625-87.984375c-7.757812-7.949218-19.777344-9.941406-29.6875-4.925781zm0 0"/><path d="m.269531 390.582031 3.445313-125.214843 49.445312 1.359374-3.445312 125.214844zm0 0"/></svg>