<svg id="Capa_1" enable-background="new 0 0 512 512" height="512" viewBox="0 0 512 512" width="512" xmlns="http://www.w3.org/2000/svg"><g><path d="m510.155 456.244-12.721-305.337c-1.252-30.054-26.744-54.507-56.826-54.507h-41.232v-33.2c0-34.849-28.352-63.2-63.201-63.2-34.848 0-63.199 28.352-63.199 63.2v33.2h-41.234c-25.11 0-46.906 14.544-54.05 34.267h102.251c22.249 0 43.539 8.597 59.948 24.206 16.409 15.61 26.058 36.444 27.167 58.664l12.057 241.102c1.059 21.195-5.668 41.345-18.988 57.361h96.549c14.81 0 28.554-5.826 38.701-16.405 10.146-10.579 15.395-24.555 14.778-39.351zm-140.779-359.844h-66.4v-33.2c0-18.307 14.893-33.2 33.199-33.2 18.307 0 33.201 14.894 33.201 33.2z"/><path d="m337.095 215.035c-1.496-29.979-27.135-54.368-57.152-54.368h-208.868c-30.018 0-55.656 24.39-57.153 54.367l-12.056 241.102c-.74 14.815 4.408 28.815 14.497 39.42 10.089 10.604 23.814 16.444 38.646 16.444h241c14.832 0 28.557-5.84 38.645-16.444 10.09-10.605 15.238-24.605 14.498-39.421zm-98.387 57.031c0 34.849-28.351 63.2-63.199 63.2s-63.199-28.352-63.199-63.2v-48.199c0-8.284 6.715-15 15-15 8.283 0 15 6.716 15 15v48.199c0 18.307 14.893 33.2 33.199 33.2 18.307 0 33.199-14.894 33.199-33.2v-48.199c0-8.284 6.717-15 15-15 8.285 0 15 6.716 15 15z"/></g></svg>