<?xml version="1.0" encoding="utf-8"?>
<svg viewBox="0 0 500 500" xmlns="http://www.w3.org/2000/svg">
  <path d="M 439.813 248.26 C 439.813 396.061 279.813 488.437 151.813 414.536 C 92.408 380.239 55.813 316.855 55.813 248.26 C 55.813 100.458 215.813 8.082 343.813 81.983 C 403.218 116.28 439.813 179.665 439.813 248.26 Z M 439.813 248.26" style="fill: rgb(238, 230, 255);"/>
  <path d="M 247.813 488.26 C 63.06 488.26 -52.41 288.26 39.966 128.26 C 82.838 54.003 162.069 8.26 247.813 8.26 C 432.565 8.26 548.035 208.26 455.659 368.26 C 412.787 442.516 333.556 488.26 247.813 488.26 Z M 247.813 24.26 C 75.377 24.26 -32.395 210.926 53.823 360.26 C 93.837 429.565 167.785 472.26 247.813 472.26 C 420.248 472.26 528.02 285.593 441.802 136.26 C 401.789 66.954 327.84 24.26 247.813 24.26 Z M 247.813 24.26" style="fill: rgb(152, 126, 204);"/>
  <path d="M 335.813 216.26 C 335.813 280.26 247.813 368.26 247.813 368.26 C 247.813 368.26 159.813 280.26 159.813 216.26 C 159.813 148.517 233.146 106.178 291.813 140.049 C 319.04 155.769 335.813 184.82 335.813 216.26 Z M 335.813 216.26" style="fill: rgb(101, 65, 176);"/>
  <path fill="#8690fa" d="M 271.813 200.26 C 271.813 218.735 251.813 230.282 235.813 221.044 C 228.387 216.757 223.813 208.834 223.813 200.26 C 223.813 181.784 243.813 170.237 259.813 179.475 C 267.238 183.762 271.813 191.685 271.813 200.26 Z M 271.813 200.26"/>
</svg>