<?xml version="1.0" encoding="utf-8"?>
<svg viewBox="0 0 500 500" xmlns="http://www.w3.org/2000/svg">
  <path d="M 440.725 250.773 C 440.725 356.773 354.725 442.773 248.725 442.773 C 142.725 442.773 56.725 356.773 56.725 250.773 C 56.725 144.773 142.725 58.773 248.725 58.773 C 354.725 58.773 440.725 144.773 440.725 250.773 Z" style="fill: rgb(238, 230, 255);"/>
  <path d="M 248.725 490.773 C 116.225 490.773 8.725 383.273 8.725 250.773 C 8.725 118.273 116.225 10.773 248.725 10.773 C 381.225 10.773 488.725 118.273 488.725 250.773 C 488.625 383.273 381.225 490.673 248.725 490.773 Z M 248.725 26.773 C 125.025 26.773 24.725 127.073 24.725 250.773 C 24.725 374.473 125.025 474.773 248.725 474.773 C 372.425 474.773 472.725 374.473 472.725 250.773 C 472.625 127.073 372.425 26.873 248.725 26.773 Z" style="fill: rgb(152, 126, 204);"/>
  <path d="M 360.725 250.773 C 360.725 312.673 310.625 362.773 248.725 362.773 C 186.825 362.773 136.725 312.673 136.725 250.773 C 136.725 188.873 186.825 138.773 248.725 138.773 C 310.625 138.773 360.725 188.873 360.725 250.773 Z" style="fill: rgb(101, 65, 176);"/>
</svg>