<?xml version="1.0" encoding="utf-8"?>
<svg viewBox="0 0 500 500" xmlns="http://www.w3.org/2000/svg">
  <path d="M 440.349 248.727 C 440.349 396.529 280.349 488.905 152.349 415.004 C 92.944 380.707 56.349 317.322 56.349 248.727 C 56.349 100.926 216.349 8.549 344.349 82.45 C 403.754 116.748 440.349 180.132 440.349 248.727 Z M 440.349 248.727" style="fill: rgb(238, 230, 255);"/>
  <path d="M 248.349 488.727 C 63.597 488.727 -51.873 288.727 40.503 128.727 C 83.375 54.471 162.606 8.727 248.349 8.727 C 433.102 8.727 548.572 208.727 456.196 368.727 C 413.324 442.983 334.093 488.727 248.349 488.727 Z M 248.349 24.727 C 75.914 24.727 -31.858 211.394 54.36 360.727 C 94.374 430.033 168.322 472.727 248.349 472.727 C 420.785 472.727 528.557 286.061 442.339 136.727 C 402.325 67.421 328.377 24.727 248.349 24.727 Z M 248.349 24.727" style="fill: rgb(152, 126, 204);"/>
  <g fill="#5153ff" transform="matrix(1, 0, 0, 1, 8.349491, 8.727191)">
    <path d="M144 144h80v80h-80zm0 0M256 144h80v80h-80zm0 0M144 256h80v80h-80zm0 0M256 256h80v80h-80zm0 0" style="fill: rgb(101, 65, 176);"/>
  </g>
</svg>